<?xml version="1.0" encoding="UTF-8"?>
<svg version="1.1" xmlns="http://www.w3.org/2000/svg" width="1920" height="1920">
<path d="M0 0 C633.6 0 1267.2 0 1920 0 C1920 633.6 1920 1267.2 1920 1920 C1286.4 1920 652.8 1920 0 1920 C0 1286.4 0 652.8 0 0 Z " fill="#122d68" transform="translate(0,0)"/>

<path d="M0 0 C-1.54276395 11.96403297 -3.75596116 23.77696101 -6 35.625 C-6.70999358 39.38770967 -7.41819006 43.15075354 -8.125 46.9140625 C-8.29508575 47.81884338 -8.46517151 48.72362427 -8.64041138 49.65582275 C-9.46905622 54.08446282 -10.27159367 58.51316167 -10.9921875 62.9609375 C-12.34710661 71.30151254 -13.96914368 79.59499445 -15.53878784 87.8972168 C-18.72379903 104.75527594 -21.87120662 121.61993167 -24.9375 138.5 C-25.09696106 139.37750916 -25.25642212 140.25501831 -25.42071533 141.15911865 C-27.45118357 152.3440907 -29.45378393 163.53390126 -31.44140625 174.7265625 C-32.29401272 179.52608757 -33.14683441 184.32557429 -34 189.125 C-34.2115976 190.31545929 -34.42319519 191.50591858 -34.64120483 192.73245239 C-37.71767695 210.02157023 -40.91199226 227.28385864 -44.22900391 244.52832031 C-46.33281879 255.46748747 -48.38518252 266.41450066 -50.375 277.375 C-50.49669556 278.0436911 -50.61839111 278.7123822 -50.74377441 279.40133667 C-51.8393142 285.42746499 -52.91874837 291.45388756 -53.8984375 297.5 C-55.33111992 306.18410422 -57.01651039 314.82330197 -58.65332031 323.47070312 C-61.52138698 338.63249584 -64.35798455 353.79708827 -67 369 C-69.29950481 382.23104668 -71.75632388 395.42925281 -74.25 408.625 C-77.60361107 426.37791101 -80.84058728 444.14902208 -84 461.9375 C-94.76516602 522.52739488 -94.76516602 522.52739488 -100.5625 552.3125 C-105.12575755 575.7615909 -109.2805734 599.29203616 -113.45703125 622.8125 C-114.30449121 627.58336823 -115.15211592 632.35420712 -116 637.125 C-116.21223206 638.31944733 -116.42446411 639.51389465 -116.64312744 640.74453735 C-119.49698622 656.78858059 -122.45205469 672.80824329 -125.54486084 688.80783081 C-128.60840278 704.6762177 -131.42197137 720.58450176 -134.20477295 736.50424194 C-136.6413491 750.43365944 -139.16039605 764.33678201 -141.89404297 778.2109375 C-143.75957452 787.68914693 -145.52484176 797.18294009 -147.25 806.6875 C-147.43772476 807.71910248 -147.43772476 807.71910248 -147.62924194 808.77154541 C-148.80085681 815.21605945 -149.95447348 821.66195141 -151.01953125 828.125 C-152.07670211 834.53631649 -153.2490853 840.92437149 -154.4375 847.3125 C-154.65559326 848.49005859 -154.87368652 849.66761719 -155.09838867 850.88085938 C-156.49625118 858.3954701 -157.95231514 865.89392422 -159.51953125 873.375 C-160.09002231 876.04706102 -160.09002231 876.04706102 -160 879 C-159.63874023 878.40276123 -159.27748047 877.80552246 -158.90527344 877.19018555 C-151.21074749 864.4806077 -143.4318667 851.83416189 -135.45898438 839.29736328 C-133.50136915 836.21483997 -131.55395558 833.12593301 -129.60668945 830.03686523 C-127.60138839 826.85726199 -125.59126895 823.68071383 -123.58154297 820.50390625 C-121.93733133 817.90078267 -120.29877055 815.29414993 -118.66015625 812.6875 C-110.40087301 799.58515645 -101.83884576 786.7184918 -93 774 C-92.53110352 773.32501465 -92.06220703 772.6500293 -91.57910156 771.95458984 C-81.43332038 757.41179146 -70.62607306 743.38873575 -59 730 C-58.36578125 729.26523438 -57.7315625 728.53046875 -57.078125 727.7734375 C-55.39723897 725.83810542 -53.70253533 723.91630658 -52 722 C-51.28070312 721.18789062 -50.56140625 720.37578125 -49.8203125 719.5390625 C-45.82521954 715.05971585 -41.76415833 710.7112133 -37.4765625 706.51171875 C-35.84740573 704.90127158 -35.84740573 704.90127158 -34.0625 702.5 C-31.68844688 699.62235985 -29.0386687 697.36973581 -26.20703125 694.953125 C-23.87242697 692.88710351 -21.68714135 690.72113836 -19.5 688.5 C-15.49232849 684.45150332 -11.33184691 680.6954487 -7 677 C-5.95906143 676.09571238 -4.91874817 675.19070469 -3.87890625 674.28515625 C3.59749904 667.79525801 11.23034622 661.5622616 19.06054688 655.50537109 C21.17734252 653.8623497 23.28438887 652.20731492 25.390625 650.55078125 C33.84859345 643.91135265 42.38067069 637.43722922 51.18994141 631.27148438 C53.13714843 629.90365942 55.07494413 628.52317844 57.01171875 627.140625 C82.08967887 609.2690759 108.02251262 592.85657126 135 578 C135.95310059 577.47196777 136.90620117 576.94393555 137.88818359 576.39990234 C189.26067108 547.98052828 243.38375343 523.75598088 300.53173828 509.62939453 C303.42711071 508.89108888 306.28890271 508.06293093 309.15478516 507.21875 C339.15137759 498.45683398 370.25415962 493.32106386 401 488 C401.77900665 487.86441681 402.55801331 487.72883362 403.36062622 487.58914185 C414.60310534 485.63976236 425.86088454 483.94440009 437.1875 482.5625 C438.04208801 482.45772339 438.89667603 482.35294678 439.77716064 482.24499512 C457.76084522 480.08152596 475.80232758 478.86199688 493.875 477.75 C494.55290462 477.70828297 495.23080925 477.66656593 495.92925644 477.62358475 C504.19223739 477.11731512 512.45663784 476.6390968 520.72253418 476.18286133 C524.41017964 475.97711464 528.09695601 475.75848714 531.7835083 475.53405762 C543.26838005 474.92938755 554.41629316 475 566 475 C566 640.99 566 806.98 566 978 C149.54 978 -266.92 978 -696 978 C-694.87684211 967.89157895 -694.87684211 967.89157895 -693.57421875 963.24609375 C-693.27805664 962.16787354 -692.98189453 961.08965332 -692.67675781 959.97875977 C-692.1870752 958.22583618 -692.1870752 958.22583618 -691.6875 956.4375 C-690.96382661 953.78997658 -690.24288337 951.14190399 -689.52734375 948.4921875 C-689.33222198 947.76997513 -689.13710022 947.04776276 -688.93606567 946.30366516 C-685.51139261 933.53936781 -682.39419313 920.69367402 -679.21362305 907.86694336 C-676.83153616 898.26979663 -674.41605854 888.6879559 -671.84033203 879.14086914 C-670.68886824 874.83709758 -669.62122721 870.51481185 -668.5625 866.1875 C-666.9599425 859.69673635 -665.25999436 853.24487428 -663.4375 846.8125 C-661.61443477 840.37513072 -660.00787694 833.915924 -658.51928711 827.39379883 C-657.14648568 821.45140227 -655.52134402 815.59636893 -653.85546875 809.73046875 C-652.43383511 804.68061675 -651.16708741 799.61430985 -650 794.5 C-648.48206665 787.84824327 -646.7191703 781.29295723 -644.85546875 774.73046875 C-643.43383511 769.68061675 -642.16708741 764.61430985 -641 759.5 C-639.48206665 752.84824327 -637.7191703 746.29295723 -635.85546875 739.73046875 C-634.43383511 734.68061675 -633.16708741 729.61430985 -632 724.5 C-630.48206665 717.84824327 -628.7191703 711.29295723 -626.85546875 704.73046875 C-625.24919143 699.02473518 -623.86307438 693.28916304 -622.54685974 687.51057434 C-621.41861192 682.623319 -620.13161997 677.80248426 -618.75390625 672.98046875 C-615.56563003 661.65411355 -612.76244975 650.2337355 -609.9375 638.8125 C-608.90659446 634.6519336 -607.8741054 630.49176465 -606.83984375 626.33203125 C-606.59297821 625.3389798 -606.34611267 624.34592834 -606.09176636 623.32278442 C-604.40757311 616.57208432 -602.65096559 609.84483364 -600.83813477 603.12768555 C-599.66914951 598.7653581 -598.57889514 594.38530508 -597.5 590 C-595.75043858 582.94272006 -593.92114537 575.91452682 -592.02734375 568.89453125 C-590.81267164 564.34039962 -589.69237418 559.76325057 -588.5625 555.1875 C-586.95855913 548.69706286 -585.26000689 542.24491852 -583.4375 535.8125 C-581.61443477 529.37513072 -580.00787694 522.915924 -578.51928711 516.39379883 C-577.14648568 510.45140227 -575.52134402 504.59636893 -573.85546875 498.73046875 C-572.43383511 493.68061675 -571.16708741 488.61430985 -570 483.5 C-568.48206665 476.84824327 -566.7191703 470.29295723 -564.85546875 463.73046875 C-563.43383511 458.68061675 -562.16708741 453.61430985 -561 448.5 C-559.48206665 441.84824327 -557.7191703 435.29295723 -555.85546875 428.73046875 C-554.43383511 423.68061675 -553.16708741 418.61430985 -552 413.5 C-550.48206665 406.84824327 -548.7191703 400.29295723 -546.85546875 393.73046875 C-545.43383511 388.68061675 -544.16708741 383.61430985 -543 378.5 C-541.48206665 371.84824327 -539.7191703 365.29295723 -537.85546875 358.73046875 C-536.43383035 353.68059984 -535.16739558 348.614248 -534 343.5 C-532.48981081 336.89855589 -530.76165744 330.38228477 -528.92578125 323.86450195 C-525.24859969 310.80798496 -521.89729544 297.69192735 -518.8046875 284.48510742 C-517.65471818 279.61627114 -516.41457087 274.80045133 -515 270 C-513.34868445 264.39213241 -511.9556142 258.75265403 -510.625 253.0625 C-508.62644694 244.51666851 -506.47140275 236.02197141 -504.23535156 227.53540039 C-502.56831048 221.20139521 -500.95071895 214.85731641 -499.375 208.5 C-497.66603869 201.60974208 -495.87639335 194.74863879 -494.02734375 187.89453125 C-492.81267164 183.34039962 -491.69237418 178.76325057 -490.5625 174.1875 C-488.95855913 167.69706286 -487.26000689 161.24491852 -485.4375 154.8125 C-483.61443477 148.37513072 -482.00787694 141.915924 -480.51928711 135.39379883 C-479.14911211 129.46277118 -477.54556817 123.61232158 -475.85327148 117.765625 C-474.75310957 113.91526867 -473.78170922 110.08553687 -473.00390625 106.15625 C-472.8440625 105.37507812 -472.68421875 104.59390625 -472.51953125 103.7890625 C-472.22195714 102.29864859 -471.94603607 100.80369439 -471.6953125 99.3046875 C-471.28515625 97.28125 -471.28515625 97.28125 -470 94 C-465.65114648 92.15744919 -461.05931271 91.30167679 -456.44018555 90.3972168 C-455.69373496 90.24780986 -454.94728437 90.09840292 -454.17821407 89.9444685 C-451.66509394 89.44240639 -449.15091432 88.9458651 -446.63671875 88.44921875 C-444.80114905 88.08361147 -442.96565114 87.71764364 -441.13021851 87.35134888 C-437.11769552 86.55132416 -433.10470202 85.75371666 -429.09133911 84.95791626 C-422.58348489 83.66742236 -416.07669041 82.37164142 -409.57006836 81.07495117 C-402.41123277 79.64851269 -395.25232802 78.22242583 -388.09309387 76.79798889 C-367.61946483 72.72413034 -347.14906465 68.63422698 -326.6796875 64.5390625 C-325.88279739 64.37963834 -325.08590727 64.22021418 -324.26486897 64.05595899 C-317.00102853 62.60276267 -309.73721129 61.14945044 -302.47342777 59.69596958 C-289.95430229 57.19089772 -277.43501682 54.68662656 -264.91559887 52.18301678 C-263.41903862 51.88373576 -261.92247853 51.58445401 -260.42591858 51.28517151 C-259.69161478 51.13832568 -258.95731097 50.99147985 -258.20075554 50.84018415 C-253.11716095 49.82352603 -248.03365376 48.80643166 -242.95018005 47.78916931 C-240.16226937 47.23131671 -237.37435095 46.67350283 -234.58642578 46.11572266 C-233.91248138 45.9808849 -233.23853698 45.84604715 -232.54417002 45.7071234 C-224.64217833 44.12632245 -216.7395355 42.54884497 -208.83566761 40.97744846 C-204.78678397 40.17247288 -200.7381613 39.36618896 -196.68954277 38.55988121 C-194.10745577 38.04630017 -191.52494876 37.53487892 -188.94239807 37.02363586 C-179.55617841 35.15800236 -170.19575758 33.18991865 -160.84179688 31.16870117 C-145.54318125 27.86844414 -130.20332314 24.7888423 -114.85362554 21.73762178 C-112.56248457 21.28206924 -110.27145838 20.82594371 -107.98046684 20.36964035 C-99.96095859 18.77241995 -91.94101507 17.17740646 -83.9206543 15.58447266 C-76.47690037 14.1059928 -69.0341968 12.62230396 -61.59192854 11.13636553 C-55.15039862 9.8504849 -48.708146 8.56827031 -42.26531976 7.28890073 C-38.43824341 6.52887828 -34.61147726 5.76737247 -30.78544807 5.00209427 C-27.20976832 4.28701043 -23.63321234 3.57648801 -20.05592728 2.86948013 C-18.12301805 2.48627278 -16.19104754 2.09833999 -14.2591095 1.71026611 C-13.10630493 1.48334076 -11.95350037 1.25641541 -10.76576233 1.02261353 C-9.76695573 0.82392481 -8.76814913 0.62523609 -7.73907566 0.4205265 C-5.10872532 0.01669245 -2.65591742 -0.07933511 0 0 Z " fill="#FFFFFF" transform="translate(1024,470)"/>
</svg>
