<svg xmlns="http://www.w3.org/2000/svg" xmlns:xlink="http://www.w3.org/1999/xlink" version="1.1" x="0px" y="0px" viewBox="0 0 100 100" enable-background="new 0 0 100 100" xml:space="preserve">
  <path fill="#ffffff" d="M50.497,56.667v2.595c0,2.137-1.73,3.817-3.817,3.817c-2.137,0-3.817-1.679-3.817-3.817v-2.595     c0-2.087,1.679-3.817,3.817-3.817C48.767,52.85,50.497,54.58,50.497,56.667z"/>
  <path fill="#ffffff" d="M57.673,61.145V49.237c0-0.611-0.509-1.12-1.12-1.12H36.756c-0.611,0-1.12,0.509-1.12,1.12v11.909     c0,3.715,3.003,6.667,6.667,6.667h8.702C54.721,67.812,57.673,64.86,57.673,61.145z M42.304,75.446     c-7.888,0-14.301-6.412-14.301-14.301V49.237c0-4.071,2.748-7.481,6.514-8.448v-5.293c0-6.769,5.445-12.214,12.163-12.214     c3.054,0,5.802,1.12,7.939,2.952c1.578,1.425,1.73,3.817,0.356,5.395c-1.425,1.578-3.817,1.781-5.395,0.356     c-0.763-0.662-1.781-1.069-2.901-1.069c-2.494,0-4.529,2.036-4.529,4.58v4.987h14.402c4.835,0,8.753,3.919,8.753,8.753v11.909     c0,7.888-6.361,14.301-14.301,14.301H42.304z"/>
  <path fill="#ffffff" d="M46.986,15.648c-14.86,0-28.55,9.72-32.927,24.733c-0.967,3.206-1.425,6.463-1.425,9.669     c0,14.809,9.72,28.55,24.733,32.927c3.206,0.967,6.463,1.374,9.669,1.374c14.809,0,28.55-9.72,32.927-24.682     c0.611-2.036,2.697-3.155,4.733-2.595c2.036,0.611,3.206,2.748,2.595,4.733c-5.395,18.321-22.087,30.179-40.255,30.179     c-3.919,0-7.888-0.509-11.858-1.679C16.909,84.912,5,68.219,5,50.051c0-3.919,0.56-7.939,1.73-11.858     C12.074,19.872,28.817,8.014,46.986,8.014c3.919,0,7.888,0.56,11.807,1.73c13.13,3.817,22.901,13.435,27.38,25.242l1.629-3.104     c0.967-1.883,3.308-2.595,5.14-1.629c1.883,0.967,2.595,3.257,1.629,5.14L88.412,47.15c-0.051,0.102-0.102,0.153-0.204,0.254     c-0.153,0.153-0.254,0.356-0.407,0.56c-0.153,0.153-0.305,0.254-0.458,0.407l-0.051,0.051c-0.204,0.153-0.356,0.254-0.611,0.356     c-0.051,0.051-0.102,0.051-0.153,0.102c-0.153,0.051-0.305,0.102-0.458,0.153c-0.916,0.305-1.883,0.204-2.799-0.254l-0.814-0.407     c0-0.051-0.051-0.051-0.051-0.051l-10.993-5.7c-1.883-1.018-2.595-3.308-1.629-5.191c1.018-1.832,3.308-2.595,5.191-1.578     L79.2,38.04c-3.664-9.822-11.756-17.812-22.545-21.018C53.449,16.106,50.192,15.648,46.986,15.648z"/></svg>
