<svg xmlns="http://www.w3.org/2000/svg" xmlns:xlink="http://www.w3.org/1999/xlink" version="1.1" x="0px" y="0px" viewBox="0 0 100 100" enable-background="new 0 0 100 100" xml:space="preserve">
        <path fill="#ffffff" d="M50.497,56.667v2.646c0,2.087-1.73,3.817-3.817,3.817c-2.137,0-3.817-1.73-3.817-3.817v-2.646c0-2.087,1.679-3.817,3.817-3.817C48.767,52.85,50.497,54.58,50.497,56.667z"/>
        <path fill="#ffffff" d="M51.159,35.445c0-2.494-1.985-4.529-4.478-4.529c-2.545,0-4.529,2.036-4.529,4.529v5.089h9.008V35.445z M42.304,75.446c-7.888,0-14.301-6.361-14.301-14.301V49.288c0-4.071,2.748-7.481,6.514-8.448v-5.395c0-6.718,5.395-12.163,12.163-12.163c6.718,0,12.112,5.445,12.112,12.163v5.395c3.766,0.967,6.514,4.377,6.514,8.448v11.858c0,7.939-6.412,14.301-14.301,14.301H42.304z M56.553,48.168H36.756c-0.611,0-1.12,0.509-1.12,1.12v11.858c0,3.715,2.952,6.667,6.667,6.667h8.702c3.715,0,6.667-2.952,6.667-6.667V49.288C57.673,48.677,57.164,48.168,56.553,48.168z"/>
        <path fill="#ffffff" d="M37.316,82.978c3.257,0.967,6.514,1.374,9.669,1.374c14.86,0,28.601-9.72,32.978-24.682c0.611-2.036,2.697-3.155,4.733-2.595c2.036,0.611,3.155,2.748,2.595,4.733c-5.395,18.321-22.138,30.179-40.306,30.179c-3.919,0-7.888-0.509-11.807-1.679C16.858,84.912,5,68.219,5,50.051c0-3.919,0.56-7.939,1.73-11.858H6.679C12.074,19.872,28.817,8.014,46.986,8.014c3.919,0,7.888,0.56,11.807,1.73c13.028,3.817,22.85,13.435,27.38,25.191l1.629-3.104c0.967-1.832,3.257-2.545,5.14-1.578c1.883,0.967,2.595,3.257,1.629,5.14L88.412,47.15c-0.153,0.254-0.305,0.509-0.509,0.712c-0.153,0.204-0.407,0.407-0.611,0.56c-0.153,0.102-0.305,0.254-0.509,0.305c0,0.051-0.051,0.051-0.102,0.102c-1.018,0.509-2.29,0.509-3.41-0.051l-0.662-0.305c-0.051-0.051-0.102-0.102-0.153-0.153c-0.051,0-0.051,0-0.051,0l-10.993-5.7c-1.883-1.018-2.595-3.308-1.629-5.191c0.967-1.832,3.308-2.595,5.14-1.578l4.224,2.188c-3.613-9.822-11.705-17.812-22.494-21.018c-3.257-0.916-6.463-1.374-9.669-1.374c-14.86,0-28.601,9.72-32.978,24.682v0.051c-0.916,3.206-1.374,6.463-1.374,9.669C12.634,64.86,22.354,78.601,37.316,82.978z"/>
</svg>
