<?xml version="1.0" encoding="utf-8"?>
<!-- Uploaded to: SVG Repo, www.svgrepo.com, Generator: SVG Repo Mixer Tools -->
<svg fill="#FFFFFF" width="800px" height="800px" viewBox="-8.5 0 32 32" version="1.1" xmlns="http://www.w3.org/2000/svg">
<title>light</title>
<path d="M7.32 5.36c-4.040 0-7.32 3.28-7.32 7.32 0 2.56 1.32 4.92 3.52 6.24v3.92c0 2.080 1.72 3.8 3.8 3.8s3.8-1.72 3.8-3.8v-3.92c2.2-1.32 3.52-3.68 3.52-6.28 0-4-3.28-7.28-7.32-7.28zM7.32 24.96c-1.16 0-2.12-0.96-2.12-2.12v-1.040c0.68 0.2 1.4 0.32 2.12 0.32s1.44-0.12 2.12-0.32v1.040c0 1.2-0.92 2.12-2.12 2.12zM9.92 17.68c-0.28 0.12-0.48 0.44-0.48 0.76v1.56c-0.68 0.28-1.4 0.4-2.12 0.4-0.76 0-1.44-0.16-2.12-0.4v-1.56c0-0.24-0.12-0.52-0.32-0.68-0.040-0.040-0.080-0.080-0.16-0.080-1.88-0.96-3.040-2.88-3.040-5 0-3.12 2.52-5.64 5.64-5.64s5.64 2.52 5.64 5.64c0 2.12-1.16 4.040-3.040 5zM9.44 12.32c-0.64-0.44-1.36-0.64-2.12-0.64s-1.52 0.24-2.12 0.64c-0.4 0.24-0.48 0.8-0.24 1.16 0.16 0.24 0.44 0.36 0.68 0.36 0.16 0 0.32-0.040 0.48-0.16 0.72-0.48 1.68-0.48 2.36 0 0.4 0.24 0.92 0.16 1.16-0.24 0.28-0.32 0.2-0.84-0.2-1.12z"></path>
</svg>