<svg xmlns="http://www.w3.org/2000/svg" xmlns:xlink="http://www.w3.org/1999/xlink" version="1.1" x="0px" y="0px" viewBox="0 0 100 100" style="enable-background:new 0 0 100 100;" xml:space="preserve"><style type="text/css">
	.st0{display:none;fill:#FFFFFF;}
	.st1{display:inline;fill:#FFFFFF;}
	.st2{fill:#FFFFFF;}
	.st3{display:inline;fill:#FFFFFF;}c:\Users\joshu\Downloads\pause.svg c:\Users\joshu\Downloads\play.svg
	.st4{display:inline;fill:none;stroke:#FFFFFF;stroke-miterlimit:10;}
</style><g class="st0"><circle class="st1" cx="50" cy="50" r="45"/></g><g class="st0"><g class="st1"><g><path class="st2" d="M113.8,42.8c5.5,5.5,11,11,16.5,16.5c1.4,1.4,3.5-0.8,2.1-2.1c-5.5-5.5-11-11-16.5-16.5     C114.6,39.3,112.4,41.4,113.8,42.8L113.8,42.8z"/></g></g><g class="st1"><g><path class="st2" d="M115.9,59.3c5.5-5.5,11-11,16.5-16.5c1.4-1.4-0.8-3.5-2.1-2.1c-5.5,5.5-11,11-16.5,16.5     C112.4,58.6,114.6,60.7,115.9,59.3L115.9,59.3z"/></g></g><path class="st3" d="M-124.5,47.4l-23.7-13.7c-2-1.2-4.5,0.3-4.5,2.6v27.3c0,2.3,2.5,3.8,4.5,2.6l23.7-13.7   C-122.5,51.4-122.5,48.6-124.5,47.4z"/><path class="st3" d="M-101.2,47.4l-23.7-13.7c-2-1.2-4.5,0.3-4.5,2.6v27.3c0,2.3,2.5,3.8,4.5,2.6l23.7-13.7   C-99.2,51.4-99.2,48.6-101.2,47.4z"/><path class="st3" d="M-31.8-9.5l-27.6-15.9c-2-1.2-4.5,0.3-4.5,2.6V9.1c0,2.3,2.5,3.8,4.5,2.6l27.6-15.9   C-29.8-5.4-29.8-8.3-31.8-9.5z"/><path class="st3" d="M-25.3,12h-4.4c-1.6,0-3-1.3-3-3v-31.7c0-1.6,1.3-3,3-3h4.4c1.6,0,3,1.4,3,3V9C-22.3,10.6-23.7,12-25.3,12z"/><path class="st3" d="M-59.8,52.2l15.9,14.4c1.9,1.7,5,0.4,5-2.2V35.6c0-2.6-3.1-4-5-2.2l-15.9,14.4C-61.1,49-61.1,51-59.8,52.2z"/><path class="st3" d="M-51.7,57.9h-8.7c-1.7,0-3-1.3-3-3v-9.8c0-1.7,1.3-3,3-3h8.7c1.7,0,3,1.3,3,3v9.8   C-48.7,56.5-50,57.9-51.7,57.9z"/><g class="st1"><g><g><path class="st2" d="M-25.4,36.1c7.5,8,7.5,19.7,0,27.7c-1.3,1.4,0.8,3.5,2.1,2.1c8.6-9.2,8.6-22.7,0-32      C-24.6,32.6-26.7,34.7-25.4,36.1L-25.4,36.1z"/></g></g><g><g><path class="st2" d="M-30.1,40.1c5.4,5.8,5.4,14,0,19.9c-1.3,1.4,0.8,3.5,2.1,2.1c6.5-7,6.5-17.1,0-24.1      C-29.3,36.5-31.4,38.6-30.1,40.1L-30.1,40.1z"/></g></g><g><g><path class="st2" d="M-34.7,44c3.2,3.5,3.3,8.5,0,12c-1.3,1.4,0.8,3.5,2.1,2.1c4.4-4.7,4.4-11.5,0-16.3      C-33.9,40.4-36,42.6-34.7,44L-34.7,44z"/></g></g></g><path class="st4" d="M-92,36.3c7.2,0,13,5.8,13,13s-5.8,13-13,13"/></g><g class="st0"><path class="st1" d="M89.1,47.4L30.9,13.8c-2-1.2-4.5,0.3-4.5,2.6v67.2c0,2.3,2.5,3.8,4.5,2.6l58.2-33.6   C91.1,51.4,91.1,48.6,89.1,47.4z"/></g><g class="st0"><path class="st1" d="M39.7,83H24c-1.6,0-3-1.4-3-3V20c0-1.7,1.4-3,3-3h15.7c1.6,0,3,1.3,3,3V80C42.7,81.6,41.3,83,39.7,83z"/><path class="st1" d="M75.7,83H60.1c-1.7,0-3-1.4-3-3V20c0-1.7,1.3-3,3-3h15.7c1.7,0,3,1.3,3,3V80C78.7,81.6,77.4,83,75.7,83z"/></g><g><g><path d="M66.8,71.5h-8.1c-1.7,0-3-1.3-3-3V31.5c0-1.6,1.3-3,3-3h8.1c1.7,0,3,1.4,3,3v37.1C69.8,70.2,68.5,71.5,66.8,71.5z"/><path d="M90.4,71.5h-8.1c-1.7,0-3-1.3-3-3V31.5c0-1.6,1.3-3,3-3h8.1c1.7,0,3,1.4,3,3v37.1C93.4,70.2,92,71.5,90.4,71.5z"/><path d="M46,47.4L11.1,27.3c-2-1.2-4.5,0.3-4.5,2.6v40.3c0,2.3,2.5,3.8,4.5,2.6L46,52.6C48,51.4,48,48.6,46,47.4z"/></g></g><g class="st0"><path class="st1" d="M77.7,80.7H22.3c-1.7,0-3-1.3-3-3V22.3c0-1.7,1.3-3,3-3h55.4c1.7,0,3,1.3,3,3v55.4   C80.7,79.4,79.4,80.7,77.7,80.7z"/></g><g class="st0"><circle class="st1" cx="50" cy="50" r="33.5"/></g><g class="st0"><path class="st1" d="M92.7,46L55.9,24.7c-3.1-1.8-7,0.4-7,4v12.8L19.7,24.7c-3.1-1.8-7,0.4-7,4v42.4c0,3.6,3.9,5.8,7,4l29.2-16.9   v12.8c0,3.6,3.9,5.8,7,4L92.7,54C95.8,52.2,95.8,47.8,92.7,46z"/></g><g class="st0"><path class="st1" d="M7.3,54l36.8,21.2c3.1,1.8,7-0.4,7-4V58.4l29.2,16.9c3.1,1.8,7-0.4,7-4V28.8c0-3.6-3.9-5.8-7-4L51.1,41.6V28.8   c0-3.6-3.9-5.8-7-4L7.3,46C4.2,47.8,4.2,52.2,7.3,54z"/></g><g class="st0"><path class="st1" d="M74.5,20.7h-0.6c-2.6,0-4.7,2.1-4.7,4.7v19.8L27.8,21.2c-3.1-1.8-7,0.4-7,4v49.5c0,3.6,3.9,5.8,7,4l41.5-23.9   v19.8c0,2.6,2.1,4.7,4.7,4.7h0.6c2.6,0,4.7-2.1,4.7-4.7V25.4C79.2,22.8,77.1,20.7,74.5,20.7z"/></g><g class="st0"><path class="st1" d="M25.5,79.3h0.6c2.6,0,4.7-2.1,4.7-4.7V54.8l41.5,23.9c3.1,1.8,7-0.4,7-4V25.3c0-3.6-3.9-5.8-7-4L30.7,45.2   V25.4c0-2.6-2.1-4.7-4.7-4.7h-0.6c-2.6,0-4.7,2.1-4.7,4.7v49.3C20.8,77.2,22.9,79.3,25.5,79.3z"/></g><g class="st0"><path class="st1" d="M91.8,52.6L44,80.2c-2,1.2-4.5-0.3-4.5-2.6V22.4c0-2.3,2.5-3.8,4.5-2.6l47.8,27.6   C93.8,48.6,93.8,51.4,91.8,52.6z M32.2,76.3V23.7c0-1.6-1.4-3-3-3h-3.9c-1.6,0-3,1.4-3,3v52.6c0,1.7,1.4,3,3,3h3.9   C30.9,79.3,32.2,77.9,32.2,76.3z"/></g><g class="st0"><path class="st1" d="M8.9,47.4l47.8-27.6c2-1.2,4.5,0.3,4.5,2.6v55.2c0,2.3-2.5,3.8-4.5,2.6L8.9,52.6C6.9,51.4,6.9,48.6,8.9,47.4z    M68.6,23.7v52.6c0,1.7,1.4,3,3,3h3.9c1.6,0,3-1.3,3-3V23.7c0-1.6-1.4-3-3-3h-3.9C69.9,20.7,68.6,22.1,68.6,23.7z"/></g><g class="st0"><path class="st1" d="M52.8,24v52c0,4.7-5.6,7.2-9.1,4L26.3,64.2H12c-3,0-5.4-2.4-5.4-5.4V41.2c0-3,2.4-5.4,5.4-5.4h14.3L43.7,20   C47.2,16.8,52.8,19.3,52.8,24z M77.1,25c13.5,14.5,13.5,35.6,0,50.1c-2.4,2.5,1.4,6.4,3.8,3.8c15.6-16.7,15.6-41.1,0-57.8   C78.5,18.6,74.7,22.4,77.1,25L77.1,25z M68.6,32c9.7,10.4,9.7,25.5,0,35.9c-2.4,2.6,1.5,6.4,3.8,3.8c11.7-12.6,11.7-31,0-43.6   C70.1,25.6,66.3,29.5,68.6,32L68.6,32z M60.2,39.1c5.9,6.4,5.9,15.4,0,21.7c-2.4,2.6,1.5,6.4,3.8,3.8c7.9-8.6,7.9-20.8,0-29.4   C61.7,32.7,57.8,36.6,60.2,39.1L60.2,39.1z"/></g><g class="st0"><path class="st1" d="M62.5,24v52c0,4.7-5.6,7.2-9.1,4L36,64.2H21.7c-3,0-5.4-2.4-5.4-5.4V41.2c0-3,2.4-5.4,5.4-5.4H36L53.5,20   C57,16.8,62.5,19.3,62.5,24z M69.9,39.1c5.9,6.4,5.9,15.4,0,21.7c-2.4,2.6,1.5,6.4,3.8,3.8c7.9-8.6,7.9-20.8,0-29.4   C71.4,32.7,67.6,36.6,69.9,39.1L69.9,39.1z"/></g><g class="st0"><path class="st1" d="M54.3,24v52c0,4.7-5.6,7.2-9.1,4L27.8,64.2H13.5c-3,0-5.4-2.4-5.4-5.4V41.2c0-3,2.4-5.4,5.4-5.4h14.3L45.3,20   C48.8,16.8,54.3,19.3,54.3,24z"/><path class="st1" d="M90.4,59.6c-3.7-3.7-5.9-5.9-9.6-9.6c3.7-3.7,5.9-5.9,9.6-9.6c2.1-2.1-1.2-5.4-3.3-3.3   c-3.7,3.7-5.9,5.9-9.6,9.6c-3.7-3.7-5.9-5.9-9.6-9.6c-2.1-2.1-5.4,1.2-3.3,3.3c3.7,3.7,5.9,5.9,9.6,9.6c-3.7,3.7-5.9,5.9-9.6,9.6   c-2.1,2.1,1.2,5.4,3.3,3.3c3.7-3.7,5.9-5.9,9.6-9.6c3.7,3.7,5.9,5.9,9.6,9.6C89.2,65,92.5,61.7,90.4,59.6z"/></g><g class="st0"><path class="st1" d="M85.1,43.4c-9.5,0-19,0-28.5,0c0-9.5,0-19,0-28.5c0-8.5-13.1-8.5-13.1,0c0,9.5,0,19,0,28.5c-9.5,0-19,0-28.5,0   c-8.5,0-8.5,13.1,0,13.1c9.5,0,19,0,28.5,0c0,9.5,0,19,0,28.5c0,8.5,13.1,8.5,13.1,0c0-9.5,0-19,0-28.5c9.5,0,19,0,28.5,0   C93.5,56.6,93.5,43.4,85.1,43.4z"/></g><g class="st0"><g class="st1"><path d="M14.9,56.6c23.4,0,46.8,0,70.1,0c8.5,0,8.5-13.1,0-13.1c-23.4,0-46.8,0-70.1,0C6.5,43.4,6.5,56.6,14.9,56.6L14.9,56.6z"/></g></g><g class="st0"><path class="st1" d="M79.4,70.2C72.7,63.4,66,56.7,59.3,50c6.7-6.7,13.4-13.4,20.2-20.2c6-6-3.3-15.3-9.3-9.3   C63.4,27.3,56.7,34,50,40.7C43.3,34,36.6,27.3,29.8,20.6c-6-6-15.3,3.3-9.3,9.3C27.3,36.6,34,43.3,40.7,50   C34,56.7,27.3,63.4,20.6,70.2c-6,6,3.3,15.3,9.3,9.3C36.6,72.7,43.3,66,50,59.3c6.7,6.7,13.4,13.4,20.2,20.2   C76.1,85.4,85.4,76.1,79.4,70.2z"/></g></svg>
