<svg xmlns="http://www.w3.org/2000/svg" xmlns:xlink="http://www.w3.org/1999/xlink" version="1.1" x="0px" y="0px" viewBox="0 0 80 80" style="enable-background:new 0 0 80 80;" 
  xml:space="preserve"><path fill="#ffffff" d="M11.03,60.2h57.94c2.22,0,4.03-1.8,4.03-4.02v-0.27c0-2.71-1.58-5.22-4.02-6.4L41,35.98v-1.56c0-1.12,0.65-2.12,1.7-2.61  c2.64-1.26,4.07-4.15,3.46-7.05c-0.49-2.38-2.43-4.32-4.82-4.81c-1.89-0.4-3.83,0.06-5.31,1.27c-1.48,1.2-2.33,2.98-2.33,4.89  c0,0.55,0.44,1,1,1c0.55,0,1-0.45,1-1c0-1.3,0.58-2.52,1.59-3.34c1.02-0.84,2.32-1.14,3.65-0.87c1.61,0.34,2.93,1.65,3.27,3.27  c0.41,1.99-0.56,3.97-2.37,4.83C40.09,30.83,39,32.52,39,34.42v1.56L11.02,49.51C8.58,50.69,7,53.2,7,55.91v0.27  C7,58.4,8.81,60.2,11.03,60.2z M9,55.91c0-1.95,1.13-3.75,2.89-4.6L40,37.73l28.11,13.58c1.76,0.85,2.89,2.65,2.89,4.6v0.27  c0,1.11-0.91,2.02-2.03,2.02H11.03C9.91,58.2,9,57.29,9,56.18V55.91z"/></svg>
